PathFileType        4      (X/Y/Z)      C:\Users\pc\Desktop\IMUTRC\Sujet_08\Sujet_08_velo_60.trc         
DataRate	CameraRate	NumFrames	NumMarkers	Units	OrigDataRate	OrigDataStartFrame	OrigNumFrames
60.0	60.0	4	64	mm	60.0	818	934
Frame#	Time	pHipOrigin			pRightASI			pLeftASI			pRightCSI			pLeftCSI			pRightIschialTub			pLeftIschialTub			pSacrum			pL5SpinalProcess			pL3SpinalProcess			pT12SpinalProcess			pIJ			pT4SpinalProcess			pT8SpinalProcess			pPX			pC7SpinalProcess			pTopOfHead			pRightAuricularis			pLeftAuricularis			pBackOfHead			pRightAcromion			pLeftAcromion			pRightArmLatEpicondyle			pRightArmMedEpicondyle			pLeftArmLatEpicondyle			pLeftArmMedEpicondyle			pRightUlnarStyloid			pRightRadialStyloid			pRightOlecranon			pLeftUlnarStyloid			pLeftRadialStyloid			pLeftOlecranon			pRightTopOfHand			pRightPinky			pRightBallHand			pLeftTopOfHand			pLeftPinky			pLeftBallHand			pRightGreaterTrochanter			pRightKneeLatEpicondyle			pRightKneeMedEpicondyle			pRightPatella			pLeftGreaterTrochanter			pLeftKneeLatEpicondyle			pLeftKneeMedEpicondyle			pLeftPatella			pRightTibialTub			pRightLatMalleolus			pRightMedMalleolus			pLeftTibialTub			pLeftLatMalleolus			pLeftMedMalleolus			pRightHeelFoot			pRightFirstMetatarsal			pRightFifthMetatarsal			pRightPivotFoot			pRightHeelCenter			pRightToe			pLeftHeelFoot			pLeftFirstMetatarsal			pLeftFifthMetatarsal			pLeftPivotFoot			pLeftHeelCenter			pLeftToe			
		X1	Y1	Z1	X2	Y2	Z2	X3	Y3	Z3	X4	Y4	Z4	X5	Y5	Z5	X6	Y6	Z6	X7	Y7	Z7	X8	Y8	Z8	X9	Y9	Z9	X10	Y10	Z10	X11	Y11	Z11	X12	Y12	Z12	X13	Y13	Z13	X14	Y14	Z14	X15	Y15	Z15	X16	Y16	Z16	X17	Y17	Z17	X18	Y18	Z18	X19	Y19	Z19	X20	Y20	Z20	X21	Y21	Z21	X22	Y22	Z22	X23	Y23	Z23	X24	Y24	Z24	X25	Y25	Z25	X26	Y26	Z26	X27	Y27	Z27	X28	Y28	Z28	X29	Y29	Z29	X30	Y30	Z30	X31	Y31	Z31	X32	Y32	Z32	X33	Y33	Z33	X34	Y34	Z34	X35	Y35	Z35	X36	Y36	Z36	X37	Y37	Z37	X38	Y38	Z38	X39	Y39	Z39	X40	Y40	Z40	X41	Y41	Z41	X42	Y42	Z42	X43	Y43	Z43	X44	Y44	Z44	X45	Y45	Z45	X46	Y46	Z46	X47	Y47	Z47	X48	Y48	Z48	X49	Y49	Z49	X50	Y50	Z50	X51	Y51	Z51	X52	Y52	Z52	X53	Y53	Z53	X54	Y54	Z54	X55	Y55	Z55	X56	Y56	Z56	X57	Y57	Z57	X58	Y58	Z58	X59	Y59	Z59	X60	Y60	Z60	X61	Y61	Z61	X62	Y62	Z62	X63	Y63	Z63	X64	Y64	Z64	
818	13.617	0.0	1249.97582	7.653894434872941E-14	114.04846791834116	1327.85694	109.69297133304175	63.45885324133496	1318.64693	-149.60076758857784	87.25713292996691	1402.3449	88.56176431893788	45.50974916393528	1394.5891	-125.03755643166323	-56.42214467111778	1214.91316	67.82124449519091	-77.28180664961899	1211.03526	-39.057983422514255	-55.47555759242472	1289.07796	9.414548667656296	6.289246742723232	1370.99856	-4.961693030221074	70.25373647149021	1465.36074	-18.785998212184595	127.92858924416323	1552.29029	-30.437903757930805	368.9799209942475	1603.51086	-78.99384309852859	255.87678567746676	1689.7941	-54.4735480562073	193.1007316750587	1632.5951	-42.736686129595604	286.53894783812405	1521.75184	-63.6693544354466	292.24014279531315	1721.30202	-56.921578441082126	422.64665804401386	1912.12692	-105.13450743756998	441.2815899530215	1814.69473	-44.259497280939584	358.88925346697204	1825.68211	-150.1754273347823	360.10856504227417	1832.79159	-64.97129386161777	332.1155979084884	1667.49618	90.06270318271208	272.53347629214943	1670.56618	-218.72559170029635	467.4100275449148	1415.10965	56.00145748013892	432.00364323283065	1400.89069	7.427851141993643	398.24442125550564	1408.4849	-177.03481867368964	368.9175851991951	1400.72911	-123.30419135050192	557.2544946180991	1180.33523	38.70097221570801	596.1884028415325	1200.6942	11.439156185695014	430.03424838321433	1401.05227	47.44223775981405	495.4201696661836	1180.17365	-177.29171995649514	539.760520682444	1203.27946	-163.5667354508968	361.0969977941457	1395.88174	-158.9741590611809	724.1705921921128	1082.41831	97.00940448725127	633.9282584547869	1099.38411	80.27689324178657	593.3184361364767	1148.66573	37.020509941944354	645.7567419455636	1084.84199	-274.32931728926945	562.3737414741931	1099.86885	-235.0523987217262	532.3070132775439	1149.95836	-184.5695940441836	24.292438436457644	1221.05316	157.19824218692762	234.87111812867843	885.4534	134.44276940821175	246.4482584275347	890.78551	58.550078214519715	275.5357851824609	913.08342	101.08734082816176	9.160171535124157	1230.26317	-158.02658176664448	370.0479600887195	1066.42198	-139.01982966977275	374.74800803697144	1071.26935	-62.38996507910916	387.73425308266997	1109.07886	-101.61027188004418	294.0118766599649	858.46969	96.79787380111698	232.26862594217874	483.12147	131.5228106479536	233.73909146423824	482.152	71.07555466353166	393.77059680717326	1021.50299	-107.92912943720202	122.5862126488794	755.70539	-149.0193158182945	128.32284785708993	747.46486	-89.43419773777278	173.0524288818852	418.32826	97.94727815772967	320.47719689462684	372.92453	62.08721553779246	319.3269201626564	370.01611	136.53701177205483	340.0072533242619	365.00716	98.34523503400555	209.285109048918	409.60299	98.10135785757957	415.60820748674655	339.80082	98.54998354413846	40.32514776818546	730.01432	-118.89665898523178	139.10446911691201	608.18368	-97.54147663714785	137.09109742087958	615.61632	-171.7287564412667	151.5480124298088	595.58052	-135.54491564899732	65.85882641466954	703.19219	-122.2698282395805	201.48266630325614	533.8573	-143.3113333371734	
819	13.633	0.0	1249.97582	7.653894434872941E-14	115.17155618945667	1327.3722	108.90657645953176	62.37304276835615	1318.80851	-149.95628774858224	88.29604698344016	1401.86016	88.25274515562302	44.84519014446101	1394.91226	-124.99066348512122	-55.97283688154759	1214.91316	68.06454221308312	-77.71228941327212	1211.35842	-38.47759862068225	-55.40060657333528	1289.07796	9.919982450398855	6.420313906907522	1370.99856	-4.774509720941938	70.41286170822191	1465.36074	-18.757940139637174	127.95664558022888	1552.29029	-30.597019146584984	368.96108438377115	1603.67244	-79.81751750665704	255.80183292189554	1689.7941	-54.97897199087233	192.99772258342185	1632.5951	-43.08299467560644	286.492054891582	1521.91342	-64.33391345492088	292.1932481122894	1721.30202	-57.58612761247886	421.86026490698566	1912.45008	-106.25760555676301	440.9725626781109	1815.01789	-45.298422918972136	358.3930428827823	1825.68211	-151.08328580863054	359.77147795833434	1832.95317	-65.8510844148411	332.5741370082071	1667.49618	89.32320299222589	271.63483928037226	1670.56618	-219.2121807609668	467.56914293356897	1414.94807	56.02951381620455	432.1627684695624	1400.72911	7.455909214541067	397.92617078204216	1408.64648	-177.09093481878452	368.8895271266477	1401.05227	-123.14506611377018	557.2264365455517	1180.01208	38.86009745243973	596.1884028415325	1200.37104	11.439156185695014	430.19337361994604	1400.72911	47.47029583236146	495.3921115936362	1180.49681	-177.13259471976343	539.760520682444	1203.7642	-163.5667354508968	360.937872557414	1396.20489	-159.00221713372832	724.1986502646603	1081.93357	96.85027925051956	633.9563165273344	1099.06095	80.11776800505486	593.3184361364767	1148.34257	37.020509941944354	645.5695586362846	1085.16515	-274.19825012508517	562.3456834016457	1100.19201	-234.8932734849945	532.1478880408122	1150.28152	-184.597652116731	23.655937489530793	1220.73001	157.08600989673792	222.40369266842345	877.85918	135.36179577235248	234.61733565068835	882.86813	59.581327020772626	264.34135350446394	904.03499	102.23082018812258	9.768614409503584	1232.04054	-157.75522423972308	376.4786597226963	1081.93357	-136.4092802862002	380.1958964415288	1086.45778	-59.78862904601194	392.115180945766	1125.07519	-98.54079955849612	281.51639486364434	850.06758	97.87601555391191	216.03872259146505	475.52725	134.23947981638267	217.19093764006112	474.3962	73.73610768686586	400.83778753999934	1037.49932	-105.2063494999216	137.16914928511113	764.75382	-148.90902995632626	142.55947421082905	756.51329	-89.22089293609015	155.36235017611622	412.02667	100.57055164644541	301.6451834591884	363.22979	64.67320775540796	300.494906727218	360.32136	139.12300398967034	321.0161262366511	354.82768	100.90316106747788	191.27677986968564	402.33193	100.66851520120048	396.1397029524588	328.16713	101.02374520804604	55.385460114612336	736.3159	-118.70219890562126	157.90881469317372	617.55527	-97.1790502240278	155.5771826756003	624.98791	-171.42244790972327	170.69865670400384	605.27526	-135.28550006399593	81.7428212808206	710.30167	-122.09419318588705	222.57086164270157	545.16784	-142.8743478548164	
820	13.65	0.0	1249.97582	7.653894434872941E-14	116.10747273585233	1326.88747	108.25124063861034	61.605474657245	1318.97009	-150.25570334805104	89.36303069402013	1401.537	87.78459264398072	44.367824282343406	1394.91226	-125.07483596628171	-55.55157557996553	1214.91316	68.4669570561113	-78.11471410437781	1211.68158	-38.05633905558196	-55.166530317514116	1289.23954	10.453474305688841	6.7385643803709465	1370.99856	-4.718393575847093	70.60004501750105	1465.19916	-18.88900730382146	128.3029541262397	1552.12871	-30.70002823822185	369.1013747465082	1603.83402	-80.6131436903156	255.8579490669904	1689.7941	-55.29722246433577	193.2129639652484	1632.43352	-43.37318707652245	286.7634124185034	1521.91342	-64.94235632930028	292.2774223299316	1721.30202	-58.063503322673995	421.7103611323251	1912.45008	-107.26846327417059	440.98178414018196	1815.17947	-46.2812225638323	358.02790757437253	1825.68211	-151.80394938864038	359.7245850117924	1832.95317	-66.51564343431536	333.19180308113937	1667.3346	88.6117510262096	271.2416476358969	1670.56618	-219.77372895232241	467.88739340703245	1414.62491	56.08562996129941	432.61208610721013	1400.24437	7.699208668915049	397.9542288545896	1408.64648	-177.25006005551617	369.2077776001111	1401.37542	-123.08894996867534	557.5446870190151	1179.68892	38.916213597534565	596.5066533149959	1199.8863	11.495272330789861	430.6426912575938	1400.56753	47.713595286735455	495.68230399455217	1180.65839	-176.91735333793687	539.8915878466283	1203.92578	-163.3795521416177	361.0969977941457	1396.20489	-158.9741590611809	724.573007035141	1081.28725	96.5881431856692	634.3026152252678	1098.57622	80.01475717693621	593.4775613732085	1147.85784	37.048568014491764	645.7286838730162	1085.16515	-274.1701920525378	562.5048086383773	1100.35359	-234.86521541244707	532.4380804417283	1150.4431	-184.3824107349045	23.309638791597475	1220.40685	157.18902072485653	212.24818662845897	872.04233	136.1962478574027	224.62094499937803	876.40497	60.443835441888496	254.8503948994144	896.92551	103.01838743822654	10.217932047151304	1233.65633	-157.5119247853491	381.6083092383495	1095.82937	-133.86406850979358	384.6609967857852	1099.86885	-57.1965225865815	395.3822205671806	1139.13257	-95.66772563318433	271.04263661373466	843.11968	98.65436134194482	199.83686746522127	469.71041	136.79702201159822	200.82996712516317	468.2562	76.2655935460158	406.9221884760427	1051.87986	-102.4927892882304	151.72402611231368	771.54014	-148.6396090095488	156.9552275377816	763.46119	-88.97953990993761	137.67226162226973	407.34088	103.19382339867937	282.8131717602318	355.47399	67.25919012494592	281.6348352192323	352.56557	141.86812144401753	302.02498756448097	346.74872	103.46109521254594	173.39950974304176	396.99982	103.4228442695412	376.4840069972962	318.3108	103.6285624515786	70.79206942249075	740.1938	-118.61073980605187	177.5087783414982	625.31107	-96.67634503272991	175.01802108719312	632.42055	-170.9478007909728	190.77599432604168	613.35422	-134.69861080697822	98.10417389749357	715.14904	-121.83439723559245	244.61380840253733	555.18574	-142.26901393717486	
821	13.667	0.0	1249.97582	7.653894434872941E-14	117.04337769768873	1326.40273	107.59591292928465	60.8379163942114	1318.97009	-150.55511721103812	90.24282124724341	1401.05227	87.44750556004092	44.07763188142739	1394.91226	-125.29007734810827	-55.28944125159695	1215.07474	68.84132367466955	-78.35801182227	1212.00473	-37.607031266011774	-55.06352122587725	1289.40112	10.799782851699685	7.056814853834372	1370.83698	-4.662277430752248	71.1054672156843	1465.03759	-18.963950211315154	128.67731089672046	1551.96713	-30.96216430307221	369.3727322734296	1603.67244	-81.22158656469502	256.2603737580961	1689.47094	-55.71848202943605	193.7464558205384	1632.11036	-43.6072633323436	287.1938934456748	1521.59027	-65.52273128305474	292.6798470210373	1721.14044	-58.48476288777429	421.90676590367525	1912.2885	-108.38233008321504	441.2811997396508	1815.17947	-47.04879067494345	358.3273231738414	1825.35895	-152.5715174997515	360.02399887477935	1832.79159	-67.28320169734897	334.0996598185058	1667.01144	88.1155502900974	271.2977637809918	1670.24303	-220.0919794257859	468.5238943539593	1414.30175	56.19786225148909	433.2766352786069	1399.92121	7.652313985891255	398.3005374006005	1408.64648	-177.35306914715306	369.87232677150786	1401.37542	-123.13584465169917	557.9940046566628	1179.20418	39.15951305190855	596.9559709526436	1199.40157	11.738571785163844	431.3072404289905	1400.08279	47.66670060371165	496.1596698566698	1180.65839	-176.83318085677638	540.3970117812934	1203.92578	-163.45450489718888	361.4433063401565	1396.20489	-159.07716815281776	725.0784408178836	1080.64094	96.51319216657976	634.8080490080104	1097.9299	79.93980615784677	593.9549370834036	1147.3731	37.132742232134035	646.0469343464797	1085.16515	-274.1140759074429	562.8230591118408	1100.35359	-234.80909926735222	532.7563309151916	1150.28152	-184.32629458980966	23.337696864144895	1220.40685	157.02989548812485	204.4607028328387	867.84128	136.62789314957226	216.6743458151036	871.71918	60.847424397992405	247.40921964980498	891.5934	103.34702363875923	10.508124448067303	1234.94896	-157.29668340352254	385.5960240243333	1107.78622	-131.3561380044872	387.984164136854	1111.50254	-54.641707246328835	397.82559562854436	1151.41258	-92.7758133609143	262.61865187118747	837.46441	98.97377434392467	183.90637971397643	465.83251	138.74612306891615	184.5531690914257	464.05514	78.31771354304811	412.1548470833328	1064.48303	-99.60126896581292	166.4380299127297	776.22594	-148.34213983830142	171.16379755545512	768.30856	-88.60711971960079	120.19742429832728	404.75561	105.52690448647911	264.3274668708043	349.49557	69.74217325092455	262.99001494115055	346.9103	144.3230482339305	283.35209936577434	340.44714	106.07514550270885	155.7655471823676	393.60666	105.72786728479352	357.1465696271928	310.39343	106.28950742476532	86.51693094031438	741.64801	-118.46317440946515	197.90435658892198	631.28949	-96.03334136709918	195.25448394596268	638.2374	-170.3328534614077	211.67700809268985	619.81738	-134.13056800851447	114.8118431717731	717.73431	-121.67759879237536	267.90168913560177	564.07259	-141.28009193890398	
